<svg xmlns="http://www.w3.org/2000/svg" xmlns:xlink="http://www.w3.org/1999/xlink" width="500" zoomAndPan="magnify" viewBox="0 0 375 374.999991" height="500" preserveAspectRatio="xMidYMid meet" version="1.0"><defs><filter x="0%" y="0%" width="100%" height="100%" id="1d206ab1ff"><feColorMatrix values="0 0 0 0 1 0 0 0 0 1 0 0 0 0 1 0 0 0 1 0" color-interpolation-filters="sRGB"/></filter><g/><clipPath id="0441e1208d"><path d="M 162 202 L 237 202 L 237 225.613281 L 162 225.613281 Z M 162 202 " clip-rule="nonzero"/></clipPath><clipPath id="086fc12a15"><path d="M 158 74.113281 L 242 74.113281 L 242 96 L 158 96 Z M 158 74.113281 " clip-rule="nonzero"/></clipPath><clipPath id="67176a0e44"><path d="M 229 138 L 255.984375 138 L 255.984375 211 L 229 211 Z M 229 138 " clip-rule="nonzero"/></clipPath><mask id="9ec0e4a738"><g filter="url(#1d206ab1ff)"><rect x="-37.5" width="450" fill="#000000" y="-37.499999" height="449.999989" fill-opacity="0.1"/></g></mask><clipPath id="02c91d282a"><path d="M 0.519531 0.199219 L 108 0.199219 L 108 57.078125 L 0.519531 57.078125 Z M 0.519531 0.199219 " clip-rule="nonzero"/></clipPath><clipPath id="a6dd695522"><rect x="0" width="109" y="0" height="58"/></clipPath><mask id="6888e4e680"><g filter="url(#1d206ab1ff)"><rect x="-37.5" width="450" fill="#000000" y="-37.499999" height="449.999989" fill-opacity="0.8"/></g></mask><clipPath id="3af6acf7da"><path d="M 0.480469 0.640625 L 25.199219 0.640625 L 25.199219 10.480469 L 0.480469 10.480469 Z M 0.480469 0.640625 " clip-rule="nonzero"/></clipPath><clipPath id="55d51e325c"><rect x="0" width="26" y="0" height="11"/></clipPath><mask id="bd296e0524"><g filter="url(#1d206ab1ff)"><rect x="-37.5" width="450" fill="#000000" y="-37.499999" height="449.999989" fill-opacity="0.3"/></g></mask><clipPath id="f3ffacb23e"><path d="M 0.359375 0.28125 L 99.480469 0.28125 L 99.480469 58.121094 L 0.359375 58.121094 Z M 0.359375 0.28125 " clip-rule="nonzero"/></clipPath><clipPath id="ac97daefbf"><rect x="0" width="100" y="0" height="59"/></clipPath><mask id="6e2f8f650c"><g filter="url(#1d206ab1ff)"><rect x="-37.5" width="450" fill="#000000" y="-37.499999" height="449.999989" fill-opacity="0.5"/></g></mask><clipPath id="e22408861d"><path d="M 1 0.121094 L 91 0.121094 L 91 27.960938 L 1 27.960938 Z M 1 0.121094 " clip-rule="nonzero"/></clipPath><clipPath id="ff8ad2b3e4"><rect x="0" width="92" y="0" height="28"/></clipPath><mask id="eb5295d9b1"><g filter="url(#1d206ab1ff)"><rect x="-37.5" width="450" fill="#000000" y="-37.499999" height="449.999989" fill-opacity="0.1"/></g></mask><clipPath id="d28ba8b9de"><path d="M 0.878906 0.0390625 L 17.441406 0.0390625 L 17.441406 57.878906 L 0.878906 57.878906 Z M 0.878906 0.0390625 " clip-rule="nonzero"/></clipPath><clipPath id="7f2ff0f171"><rect x="0" width="18" y="0" height="58"/></clipPath><mask id="c74193f915"><g filter="url(#1d206ab1ff)"><rect x="-37.5" width="450" fill="#000000" y="-37.499999" height="449.999989" fill-opacity="0.5"/></g></mask><clipPath id="1cadd350c7"><path d="M 0.320312 0.761719 L 12.800781 0.761719 L 12.800781 62.441406 L 0.320312 62.441406 Z M 0.320312 0.761719 " clip-rule="nonzero"/></clipPath><clipPath id="3c19f77a6b"><rect x="0" width="13" y="0" height="63"/></clipPath><mask id="10a4684eb1"><g filter="url(#1d206ab1ff)"><rect x="-37.5" width="450" fill="#000000" y="-37.499999" height="449.999989" fill-opacity="0.8"/></g></mask><clipPath id="083d0d1261"><path d="M 0.078125 0.359375 L 18.800781 0.359375 L 18.800781 17 L 0.078125 17 Z M 0.078125 0.359375 " clip-rule="nonzero"/></clipPath><clipPath id="8b6cfbf885"><rect x="0" width="19" y="0" height="18"/></clipPath><mask id="f1f9be9120"><g filter="url(#1d206ab1ff)"><rect x="-37.5" width="450" fill="#000000" y="-37.499999" height="449.999989" fill-opacity="0.5"/></g></mask><clipPath id="2deda27b23"><path d="M 0.480469 1 L 7.679688 1 L 7.679688 37 L 0.480469 37 Z M 0.480469 1 " clip-rule="nonzero"/></clipPath><clipPath id="5513b4fbc8"><rect x="0" width="8" y="0" height="38"/></clipPath><clipPath id="8ef5e1339c"><path d="M 118.734375 149 L 233 149 L 233 218 L 118.734375 218 Z M 118.734375 149 " clip-rule="nonzero"/></clipPath><mask id="15a961f9f9"><g filter="url(#1d206ab1ff)"><rect x="-37.5" width="450" fill="#000000" y="-37.499999" height="449.999989" fill-opacity="0.1"/></g></mask><clipPath id="8345d59ba1"><path d="M 0.71875 0.398438 L 122.878906 0.398438 L 122.878906 85.601562 L 0.71875 85.601562 Z M 0.71875 0.398438 " clip-rule="nonzero"/></clipPath><clipPath id="708a90c67b"><rect x="0" width="123" y="0" height="86"/></clipPath><mask id="a019f1d535"><g filter="url(#1d206ab1ff)"><rect x="-37.5" width="450" fill="#000000" y="-37.499999" height="449.999989" fill-opacity="0.5"/></g></mask><clipPath id="804e7a392a"><path d="M 0.121094 1 L 74.519531 1 L 74.519531 84.921875 L 0.121094 84.921875 Z M 0.121094 1 " clip-rule="nonzero"/></clipPath><clipPath id="a7e621b166"><rect x="0" width="75" y="0" height="85"/></clipPath><mask id="01100ae276"><g filter="url(#1d206ab1ff)"><rect x="-37.5" width="450" fill="#000000" y="-37.499999" height="449.999989" fill-opacity="0.5"/></g></mask><clipPath id="f422cc62f9"><path d="M 0.519531 0.558594 L 70 0.558594 L 70 45 L 0.519531 45 Z M 0.519531 0.558594 " clip-rule="nonzero"/></clipPath><clipPath id="fd45146b2e"><rect x="0" width="71" y="0" height="46"/></clipPath><mask id="a54820302f"><g filter="url(#1d206ab1ff)"><rect x="-37.5" width="450" fill="#000000" y="-37.499999" height="449.999989" fill-opacity="0.8"/></g></mask><clipPath id="dd7cbf6571"><path d="M 1 0.679688 L 28.640625 0.679688 L 28.640625 9 L 1 9 Z M 1 0.679688 " clip-rule="nonzero"/></clipPath><clipPath id="2b0201d688"><rect x="0" width="29" y="0" height="10"/></clipPath><mask id="c6ad88c4f3"><g filter="url(#1d206ab1ff)"><rect x="-37.5" width="450" fill="#000000" y="-37.499999" height="449.999989" fill-opacity="0.8"/></g></mask><clipPath id="a11dfa3df7"><path d="M 1 0.601562 L 52.519531 0.601562 L 52.519531 19.320312 L 1 19.320312 Z M 1 0.601562 " clip-rule="nonzero"/></clipPath><clipPath id="b293a3ce09"><rect x="0" width="53" y="0" height="20"/></clipPath></defs><g clip-path="url(#0441e1208d)"><path fill="#d6053d" d="M 236.359375 205.648438 C 228.875 217.820312 215.195312 225.0625 201.105469 225.820312 C 187.496094 226.667969 173.640625 222.488281 162.941406 214.140625 C 173.945312 221.621094 187.742188 224.859375 200.847656 223.164062 C 213.609375 221.617188 225.695312 214.445312 231.757812 202.941406 C 231.757812 202.941406 236.359375 205.648438 236.359375 205.648438 Z M 236.359375 205.648438 " fill-opacity="1" fill-rule="nonzero"/></g><g clip-path="url(#086fc12a15)"><path fill="#d6053d" d="M 158.410156 86.128906 C 180.691406 70.839844 213 68.984375 234.039062 87.351562 C 236.921875 89.828125 239.53125 92.601562 241.839844 95.59375 C 239.359375 92.742188 236.605469 90.144531 233.617188 87.867188 C 218.820312 76.355469 198.242188 74.234375 180.785156 80.257812 C 173.832031 82.585938 167.300781 86.074219 161.515625 90.476562 C 161.515625 90.476562 158.410156 86.132812 158.410156 86.132812 Z M 158.410156 86.128906 " fill-opacity="1" fill-rule="nonzero"/></g><g clip-path="url(#67176a0e44)"><path fill="#d6053d" d="M 231.679688 138.75 C 251.324219 148.769531 260.410156 171.675781 254.464844 192.617188 C 252.640625 199.214844 249.421875 205.390625 245.140625 210.699219 C 249.042969 205.152344 251.8125 198.855469 253.167969 192.300781 C 256.671875 176.21875 250.957031 158.253906 237.621094 148.394531 C 235.0625 146.464844 232.28125 144.847656 229.359375 143.558594 C 229.359375 143.558594 231.679688 138.75 231.679688 138.75 Z M 231.679688 138.75 " fill-opacity="1" fill-rule="nonzero"/></g><path fill="#d6053d" d="M 141.605469 123.25 C 156.542969 110.871094 197.355469 92.171875 201.066406 123.699219 C 201.191406 124.828125 201.289062 126.121094 201.304688 127.25 C 201.304688 127.25 201.328125 128.4375 201.328125 128.4375 L 201.222656 127.257812 C 201.125 126.136719 200.941406 124.859375 200.738281 123.746094 C 197.429688 105.542969 182.28125 106.445312 168.320312 112.375 C 161.253906 115.398438 154.570312 119.441406 148.566406 124.230469 C 147.382812 125.1875 146.246094 126.183594 145.195312 127.203125 C 145.195312 127.203125 141.605469 123.25 141.605469 123.25 Z M 141.605469 123.25 " fill-opacity="1" fill-rule="nonzero"/><path fill="#d6053d" d="M 234.652344 134.445312 C 233.945312 135.707031 233.167969 136.984375 232.332031 138.277344 L 219.1875 136.339844 L 217.144531 136.011719 L 203.390625 133.78125 C 210.921875 124.167969 206.179688 79.824219 148.578125 125.371094 C 145.867188 127.515625 142.628906 128.925781 139.191406 129.347656 C 130.460938 130.425781 129.132812 124.453125 129.621094 119.070312 C 129.722656 117.964844 129.902344 116.871094 130.15625 115.796875 C 130.894531 112.714844 132.257812 109.800781 134.148438 107.234375 C 134.878906 106.242188 135.625 105.28125 136.386719 104.34375 C 162.128906 72.691406 205.894531 71.28125 227.71875 87.84375 C 240.820312 97.785156 246.015625 114.203125 234.652344 134.445312 Z M 234.652344 134.445312 " fill-opacity="1" fill-rule="nonzero"/><g mask="url(#9ec0e4a738)"><g transform="matrix(1, 0, 0, 1, 131, 79)"><g clip-path="url(#a6dd695522)"><g clip-path="url(#02c91d282a)"><path fill="#ffffff" d="M 88.503906 55.289062 L 86.472656 54.960938 L 75.648438 53.203125 C 76.484375 51.1875 77.023438 48.722656 77.179688 46.070312 C 77.429688 41.71875 76.625 37.375 74.90625 33.847656 C 71.84375 27.554688 66.058594 24.089844 58.617188 24.089844 C 47.859375 24.089844 33.621094 31.039062 16.289062 44.738281 C 13.824219 46.691406 10.9375 47.917969 7.9375 48.285156 C 7.339844 48.359375 6.769531 48.398438 6.238281 48.398438 C 4.308594 48.398438 2.933594 47.925781 2.042969 46.945312 C 0.566406 45.332031 0.492188 42.417969 0.6875 40.257812 C 0.777344 39.253906 0.941406 38.253906 1.175781 37.28125 C 1.847656 34.46875 3.074219 31.839844 4.820312 29.464844 C 5.519531 28.515625 6.253906 27.570312 6.996094 26.652344 C 14.078125 17.945312 22.808594 11.230469 32.953125 6.691406 C 42.066406 2.613281 52.136719 0.457031 62.078125 0.457031 C 68.527344 0.457031 74.726562 1.339844 80.5 3.085938 C 86.226562 4.816406 91.261719 7.308594 95.464844 10.496094 C 101.871094 15.355469 105.96875 21.640625 107.324219 28.675781 C 108.84375 36.578125 107 45.242188 101.84375 54.425781 C 101.359375 55.285156 100.84375 56.15625 100.300781 57.027344 Z M 88.503906 55.289062 " fill-opacity="1" fill-rule="nonzero"/></g></g></g></g><path fill="#d6053d" d="M 219.1875 136.339844 L 208.136719 134.550781 L 203.390625 133.78125 C 210.921875 124.167969 206.179688 79.824219 148.578125 125.371094 C 145.867188 127.519531 142.628906 128.925781 139.191406 129.347656 C 133.605469 130.039062 131.046875 127.839844 130.0625 124.757812 C 129.503906 123.023438 129.445312 121.011719 129.621094 119.074219 C 129.722656 117.964844 129.902344 116.871094 130.15625 115.796875 C 130.578125 118.535156 135.355469 127.355469 144.777344 117.933594 C 158.777344 103.933594 177.363281 94.925781 187.691406 92.996094 C 213.539062 88.179688 228.425781 117.015625 219.1875 136.34375 Z M 219.1875 136.339844 " fill-opacity="1" fill-rule="nonzero"/><g mask="url(#6888e4e680)"><g transform="matrix(1, 0, 0, 1, 210, 128)"><g clip-path="url(#55d51e325c)"><g clip-path="url(#3af6acf7da)"><path fill="#940229" d="M 25.113281 5.609375 C 24.40625 6.871094 23.167969 8.984375 22.332031 10.277344 L 9.535156 7.503906 L 0.765625 5.710938 L 3.175781 0.714844 C 3.175781 0.714844 16.214844 5.808594 25.113281 5.609375 Z M 25.113281 5.609375 " fill-opacity="1" fill-rule="nonzero"/></g></g></g></g><path fill="#940229" d="M 212.078125 134.03125 L 208.136719 134.550781 L 203.390625 133.78125 C 210.921875 124.167969 206.179688 79.824219 148.578125 125.371094 C 145.867188 127.519531 142.628906 128.925781 139.191406 129.347656 C 133.605469 130.039062 131.046875 127.839844 130.0625 124.757812 C 134.40625 127.804688 140.996094 127.585938 148.449219 121.605469 C 163.847656 109.242188 175.570312 99.296875 188.644531 98.097656 C 211.015625 96.054688 218.53125 117.960938 212.078125 134.03125 Z M 212.078125 134.03125 " fill-opacity="1" fill-rule="nonzero"/><g mask="url(#bd296e0524)"><g transform="matrix(1, 0, 0, 1, 135, 77)"><g clip-path="url(#ac97daefbf)"><g clip-path="url(#f3ffacb23e)"><path fill="#ffffff" d="M 89.984375 58.003906 C 108.902344 30.613281 61.808594 -24.335938 11.367188 33.726562 C 9.910156 35.40625 7.914062 36.554688 5.714844 36.878906 C 1.828125 37.460938 0.746094 35.074219 0.636719 32.546875 C 0.515625 29.789062 1.523438 27.09375 3.351562 25.023438 C 22.796875 3 51.332031 -3.046875 73.367188 2.097656 C 98.667969 7.785156 108.085938 39.664062 89.984375 58.003906 Z M 89.984375 58.003906 " fill-opacity="1" fill-rule="nonzero"/></g></g></g></g><g mask="url(#6e2f8f650c)"><g transform="matrix(1, 0, 0, 1, 139, 81)"><g clip-path="url(#ff8ad2b3e4)"><g clip-path="url(#e22408861d)"><path fill="#ffffff" d="M 4.425781 27.234375 C 2.925781 28.925781 0.207031 27.078125 1.230469 25.0625 C 1.503906 24.53125 1.84375 24.027344 2.242188 23.578125 C 14.148438 10.09375 30.839844 1.835938 48.6875 0.445312 C 37.390625 1.542969 21.597656 7.464844 4.453125 27.199219 C 4.445312 27.210938 4.433594 27.222656 4.425781 27.234375 Z M 90.992188 25.425781 C 84.378906 10.257812 69.375 0.265625 53.035156 0.242188 C 69.941406 -0.78125 87.992188 7.171875 90.992188 25.425781 Z M 90.992188 25.425781 " fill-opacity="1" fill-rule="nonzero"/></g></g></g></g><path fill="#d6053d" d="M 166.242188 200.144531 C 164.515625 199.15625 166.496094 200.332031 163.796875 198.707031 C 161.097656 197.082031 153.640625 192.09375 150.871094 190.558594 C 150.6875 190.460938 150.523438 190.371094 150.382812 190.289062 C 150.378906 190.289062 150.375 190.285156 150.371094 190.28125 C 149.785156 189.960938 149.507812 189.808594 149.367188 189.726562 C 149.3125 189.695312 149.253906 189.664062 149.199219 189.632812 C 149.195312 189.628906 149.191406 189.628906 149.183594 189.625 C 149.179688 189.625 149.175781 189.621094 149.171875 189.617188 C 149.164062 189.617188 149.15625 189.609375 149.152344 189.609375 C 149.148438 189.609375 149.148438 189.605469 149.148438 189.605469 C 149.140625 189.601562 149.128906 189.59375 149.113281 189.585938 C 149.113281 189.585938 149.113281 189.585938 149.109375 189.585938 C 149.097656 189.578125 149.085938 189.574219 149.074219 189.566406 C 149.027344 189.542969 148.980469 189.515625 148.9375 189.492188 C 148.910156 189.476562 148.886719 189.460938 148.859375 189.449219 L 148.855469 189.449219 C 148.816406 189.425781 148.765625 189.398438 148.710938 189.367188 C 148.675781 189.347656 148.640625 189.324219 148.597656 189.304688 C 148.574219 189.289062 148.550781 189.277344 148.527344 189.265625 C 148.476562 189.238281 148.425781 189.210938 148.378906 189.183594 C 148.363281 189.175781 148.347656 189.167969 148.335938 189.160156 C 148.320312 189.152344 148.308594 189.144531 148.292969 189.136719 C 148.722656 185.355469 148.933594 181.765625 148.960938 178.300781 L 148.960938 178.285156 C 149.007812 172.957031 148.621094 167.910156 147.933594 162.847656 C 147.902344 162.617188 147.871094 162.386719 147.835938 162.15625 C 147.792969 161.820312 147.742188 161.488281 147.691406 161.152344 C 147.667969 160.996094 147.648438 160.84375 147.625 160.6875 C 147.617188 160.640625 147.609375 160.589844 147.601562 160.542969 C 147.578125 160.386719 147.554688 160.230469 147.527344 160.078125 C 147.5 159.898438 147.472656 159.71875 147.445312 159.539062 C 147.414062 159.359375 147.386719 159.179688 147.355469 159 C 147.328125 158.820312 147.296875 158.640625 147.265625 158.460938 C 146.617188 154.585938 145.8125 150.652344 144.910156 146.535156 C 144.902344 146.5 144.894531 146.46875 144.890625 146.433594 C 144.875 146.382812 144.867188 146.328125 144.855469 146.273438 C 144.8125 146.085938 144.769531 145.890625 144.726562 145.699219 C 144.472656 144.546875 144.210938 143.378906 143.941406 142.191406 C 143.722656 141.230469 143.726562 140.441406 143.890625 139.757812 C 143.890625 139.75 143.894531 139.742188 143.898438 139.730469 C 144.207031 138.464844 145.074219 137.570312 146.09375 136.632812 C 146.101562 136.625 146.109375 136.617188 146.117188 136.609375 C 146.226562 136.511719 146.339844 136.40625 146.457031 136.300781 C 146.707031 136.078125 154.597656 130.707031 158.84375 138.21875 C 166.300781 161.40625 167.035156 175.964844 166.238281 200.144531 Z M 166.242188 200.144531 " fill-opacity="1" fill-rule="nonzero"/><g mask="url(#eb5295d9b1)"><g transform="matrix(1, 0, 0, 1, 146, 137)"><g clip-path="url(#7f2ff0f171)"><g clip-path="url(#d28ba8b9de)"><path fill="#ffffff" d="M 17.28125 57.707031 C 13.5625 55.335938 8.4375 51.917969 5.609375 50.40625 C 7.019531 36.011719 5.171875 23.269531 1.917969 8.707031 C 1.660156 7.03125 0.894531 5.167969 0.925781 3.476562 C 0.882812 2.628906 4.050781 -0.0820312 6.949219 0.316406 C 8.058594 0.46875 8.980469 1.238281 9.402344 2.273438 C 17.265625 21.613281 17.378906 36.871094 17.28125 57.707031 Z M 17.28125 57.707031 " fill-opacity="1" fill-rule="nonzero"/></g></g></g></g><path fill="#d6053d" d="M 166.203125 200.125 C 165.570312 199.796875 164.921875 199.382812 164.277344 198.984375 C 165.207031 174.351562 163.839844 160.933594 156.742188 137.179688 C 156.140625 135.160156 155.511719 135.394531 154.191406 134.410156 C 156.285156 134.84375 157.785156 134.878906 158.851562 138.207031 C 166.28125 161.40625 167.089844 175.984375 166.207031 200.125 Z M 166.203125 200.125 " fill-opacity="1" fill-rule="nonzero"/><path fill="#d6053d" d="M 150.382812 190.289062 C 150.382812 190.289062 150.375 190.285156 150.371094 190.28125 C 150.035156 190.09375 149.703125 189.910156 149.371094 189.726562 C 149.3125 189.695312 149.257812 189.664062 149.199219 189.632812 C 149.195312 189.628906 149.191406 189.628906 149.1875 189.625 C 149.179688 189.625 149.179688 189.621094 149.171875 189.617188 C 149.164062 189.613281 149.15625 189.609375 149.152344 189.605469 C 149.152344 189.605469 149.152344 189.605469 149.148438 189.605469 C 149.136719 189.597656 149.128906 189.59375 149.113281 189.585938 C 149.113281 189.585938 149.113281 189.585938 149.109375 189.582031 C 149.097656 189.578125 149.089844 189.570312 149.074219 189.5625 C 149.03125 189.539062 148.984375 189.515625 148.9375 189.488281 C 148.914062 189.476562 148.886719 189.460938 148.859375 189.445312 C 148.808594 189.417969 148.761719 189.394531 148.710938 189.367188 C 148.675781 189.34375 148.636719 189.324219 148.597656 189.304688 C 148.574219 189.289062 148.550781 189.277344 148.527344 189.261719 C 148.476562 189.234375 148.429688 189.210938 148.378906 189.179688 C 148.367188 189.175781 148.351562 189.164062 148.335938 189.15625 C 148.742188 185.363281 148.941406 181.769531 148.964844 178.300781 L 148.964844 178.285156 C 149 172.949219 148.617188 167.90625 147.9375 162.847656 C 147.90625 162.617188 147.871094 162.386719 147.839844 162.152344 C 147.792969 161.820312 147.746094 161.484375 147.695312 161.148438 C 147.671875 160.996094 147.648438 160.84375 147.625 160.6875 C 147.621094 160.636719 147.609375 160.589844 147.601562 160.539062 C 147.578125 160.386719 147.554688 160.230469 147.53125 160.074219 C 147.503906 159.894531 147.476562 159.714844 147.445312 159.539062 C 147.417969 159.359375 147.390625 159.179688 147.359375 159 C 147.332031 158.820312 147.300781 158.640625 147.269531 158.460938 C 146.625 154.585938 145.820312 150.65625 144.914062 146.53125 C 144.90625 146.5 144.898438 146.464844 144.890625 146.433594 C 144.878906 146.382812 144.871094 146.328125 144.855469 146.273438 C 144.8125 146.082031 144.773438 145.890625 144.730469 145.699219 C 144.46875 144.542969 144.207031 143.371094 143.933594 142.179688 C 143.710938 141.21875 143.722656 140.433594 143.890625 139.757812 C 143.894531 139.75 143.898438 139.738281 143.898438 139.730469 C 144.222656 138.476562 145.101562 137.597656 146.097656 136.632812 C 146.105469 136.625 146.113281 136.617188 146.121094 136.609375 C 146.230469 136.507812 146.34375 136.40625 146.460938 136.300781 C 145.476562 137.433594 144.917969 138.644531 145.113281 140.292969 C 149.113281 158.125 152.695312 171.613281 150.382812 190.289062 Z M 150.382812 190.289062 " fill-opacity="1" fill-rule="nonzero"/><g mask="url(#c74193f915)"><g transform="matrix(1, 0, 0, 1, 148, 137)"><g clip-path="url(#3c19f77a6b)"><g clip-path="url(#1cadd350c7)"><path fill="#ffffff" d="M 5.660156 57.980469 C 8.4375 37.445312 5.445312 23.550781 0.574219 3.84375 C -0.109375 1.03125 5.277344 -0.496094 6.054688 2.367188 C 12.652344 25.671875 13.445312 38.378906 12.191406 62.300781 C 9.996094 60.902344 7.867188 59.402344 5.660156 57.980469 Z M 5.660156 57.980469 " fill-opacity="1" fill-rule="nonzero"/></g></g></g></g><g mask="url(#10a4684eb1)"><g transform="matrix(1, 0, 0, 1, 148, 183)"><g clip-path="url(#8b6cfbf885)"><g clip-path="url(#083d0d1261)"><path fill="#940229" d="M 0.804688 0.460938 C 0.804688 0.460938 9.515625 10.519531 18.46875 7.277344 C 18.375 10.207031 18.496094 16.9375 18.496094 16.9375 L 0.164062 8.148438 L 0.800781 0.457031 Z M 0.804688 0.460938 " fill-opacity="1" fill-rule="nonzero"/></g></g></g></g><g mask="url(#f1f9be9120)"><g transform="matrix(1, 0, 0, 1, 150, 139)"><g clip-path="url(#5513b4fbc8)"><g clip-path="url(#2deda27b23)"><path fill="#ffffff" d="M 7.550781 36.976562 C 6.867188 25.601562 4.003906 15.195312 0.757812 2.03125 C 0.65625 1.625 0.898438 1.214844 1.300781 1.109375 C 1.308594 1.109375 1.316406 1.105469 1.320312 1.101562 C 1.726562 0.996094 2.140625 1.230469 2.253906 1.636719 C 6.207031 15.714844 7.355469 25.789062 7.550781 36.976562 Z M 7.550781 36.976562 " fill-opacity="1" fill-rule="nonzero"/></g></g></g></g><g clip-path="url(#8ef5e1339c)"><path fill="#d6053d" d="M 174.871094 206.402344 C 166.355469 204.125 158.28125 200.445312 150.894531 195.625 C 132.339844 183.519531 121.316406 186.351562 125.433594 197.136719 C 129.703125 208.886719 145.648438 214.722656 155.632812 205.945312 L 161.265625 208.957031 C 161.0625 209.125 160.863281 209.285156 160.660156 209.445312 C 138.425781 226.96875 118.636719 213.371094 118.734375 193.757812 C 118.738281 192.765625 118.828125 191.777344 119.058594 190.8125 C 121.503906 180.527344 135.613281 177.84375 148.519531 187.535156 C 152.132812 190.09375 155.632812 192.21875 159.015625 193.945312 C 161.816406 195.378906 164.535156 196.542969 167.171875 197.464844 L 167.21875 197.480469 C 167.515625 197.585938 167.804688 197.683594 168.097656 197.777344 C 168.101562 197.78125 168.105469 197.78125 168.109375 197.785156 C 206.09375 210.324219 225.46875 171.835938 208.898438 158.300781 C 208.894531 158.296875 208.886719 158.292969 208.882812 158.289062 C 208.539062 158.007812 208.179688 157.734375 207.800781 157.476562 C 202.054688 153.523438 192.640625 152.25 179.007812 156.089844 C 182.269531 154.457031 185.394531 153.152344 188.382812 152.140625 C 192.40625 150.78125 196.179688 149.957031 199.6875 149.601562 C 200.628906 149.503906 201.550781 149.441406 202.453125 149.410156 C 247.269531 147.902344 245.136719 225.207031 174.867188 206.40625 Z M 174.871094 206.402344 " fill-opacity="1" fill-rule="nonzero"/></g><path fill="#d6053d" d="M 250.675781 174.65625 C 248.105469 207.105469 227.433594 222.003906 199.882812 221.488281 C 185.925781 221.230469 172.355469 216.992188 160.660156 209.445312 C 159.363281 208.601562 155.632812 205.945312 155.632812 205.945312 C 145.648438 214.722656 129.703125 208.886719 125.433594 197.136719 C 121.316406 186.351562 132.339844 183.519531 150.894531 195.625 C 158.28125 200.445312 166.351562 204.125 174.871094 206.402344 C 255.753906 228.046875 246.359375 122.359375 179.011719 156.089844 C 192.644531 152.25 202.054688 153.523438 207.804688 157.476562 C 199.164062 163.40625 190.308594 165.652344 183.472656 165.105469 C 183.46875 165.105469 183.464844 165.105469 183.464844 165.105469 C 181.75 164.96875 180.164062 164.65625 178.738281 164.183594 C 172.316406 162.050781 169.171875 156.644531 172.515625 149.242188 C 174.109375 145.722656 176.773438 142.796875 180.046875 140.746094 C 183.640625 138.496094 187.585938 136.683594 191.726562 135.335938 C 213.480469 128.269531 240.523438 134.179688 248.691406 158.238281 C 250.480469 163.507812 251.117188 169.105469 250.675781 174.65625 Z M 250.675781 174.65625 " fill-opacity="1" fill-rule="nonzero"/><g mask="url(#15a961f9f9)"><g transform="matrix(1, 0, 0, 1, 126, 134)"><g clip-path="url(#708a90c67b)"><g clip-path="url(#8345d59ba1)"><path fill="#ffffff" d="M 75.253906 85.425781 C 59.378906 85.609375 40.371094 80.347656 27.847656 70.648438 L 28.851562 69.871094 C 6.859375 87.957031 -18.722656 36.878906 23.761719 63.363281 C 50.53125 82.503906 106.925781 86.640625 108.621094 43.75 C 107.96875 14.746094 78.261719 5.085938 53.007812 22.089844 C 58.273438 20.609375 63.636719 18.53125 67.875 18.53125 C 71.664062 18.53125 76.675781 20.9375 79.425781 22.101562 C 73.425781 27.953125 53.179688 33.019531 47.800781 23.710938 C 44.703125 13.125 57.566406 5.96875 66.363281 3.3125 C 79 -0.925781 95.019531 -0.289062 105.996094 6.488281 C 129.875 20.253906 126.023438 58.019531 107.710938 74.496094 C 98.902344 82.285156 87.453125 85.421875 75.253906 85.425781 Z M 75.253906 85.425781 " fill-opacity="1" fill-rule="nonzero"/></g></g></g></g><path fill="#940229" d="M 144.503906 201.945312 C 137.3125 207.039062 128.042969 195.4375 131.800781 193.542969 C 132.867188 193.007812 134.167969 193.214844 135.300781 193.601562 C 142.203125 195.949219 148.71875 200.929688 155.632812 205.945312 C 154.722656 207.808594 153.148438 208.796875 151.058594 209.117188 C 150.886719 205.785156 148.582031 203.453125 144.503906 201.945312 Z M 144.503906 201.945312 " fill-opacity="1" fill-rule="nonzero"/><g mask="url(#a019f1d535)"><g transform="matrix(1, 0, 0, 1, 171, 133)"><g clip-path="url(#a7e621b166)"><g clip-path="url(#804e7a392a)"><path fill="#ffffff" d="M 11.78125 81.976562 C 84.644531 85.589844 74.777344 26.621094 53.71875 14.3125 C 32.664062 2.003906 -10.289062 16.003906 12.46875 32.105469 C 12.46875 32.105469 12.472656 32.105469 12.472656 32.105469 C -3.542969 31.023438 -2.863281 15.332031 9.046875 7.746094 C 9.246094 7.621094 9.445312 7.496094 9.648438 7.375 C 15.890625 3.59375 23.023438 1.527344 30.3125 1.234375 C 94.742188 -1.355469 88.464844 102.496094 11.78125 81.976562 Z M 11.78125 81.976562 " fill-opacity="1" fill-rule="nonzero"/></g></g></g></g><g mask="url(#01100ae276)"><g transform="matrix(1, 0, 0, 1, 173, 136)"><g clip-path="url(#fd45146b2e)"><g clip-path="url(#f422cc62f9)"><path fill="#ffffff" d="M 69.484375 44.859375 C 69.863281 38.960938 68.941406 32.800781 66.75 26.949219 C 63.773438 19 58.761719 12.507812 52.992188 9.136719 C 45.871094 4.972656 37.574219 4.097656 31.867188 4.097656 C 25.1875 4.097656 18.523438 5.292969 13.101562 7.457031 C 7.023438 9.882812 3.152344 13.246094 1.902344 17.175781 C 1.4375 18.636719 1.25 20.441406 1.835938 22.472656 C 1.472656 21.890625 1.195312 21.25 1.019531 20.554688 C 0.492188 18.496094 0.859375 16.054688 2.046875 13.679688 C 3.367188 11.035156 5.5625 8.683594 8.394531 6.878906 C 8.578125 6.761719 8.769531 6.644531 8.957031 6.53125 C 14.730469 3.035156 21.457031 1.035156 28.417969 0.757812 C 29.167969 0.726562 29.925781 0.710938 30.667969 0.710938 C 42.835938 0.710938 53.003906 4.839844 60.082031 12.65625 C 66.382812 19.617188 69.851562 29.046875 69.851562 39.210938 C 69.851562 41.113281 69.730469 43 69.488281 44.859375 Z M 69.484375 44.859375 " fill-opacity="1" fill-rule="nonzero"/></g></g></g></g><g mask="url(#a54820302f)"><g transform="matrix(1, 0, 0, 1, 178, 151)"><g clip-path="url(#2b0201d688)"><g clip-path="url(#dd7cbf6571)"><path fill="#d6053d" d="M 28.515625 3.257812 C 28.699219 5.375 22.890625 8.214844 16.542969 8.765625 C 10.195312 9.320312 1.195312 7.203125 1.007812 5.089844 C 3.589844 3.613281 9.53125 1.667969 15.878906 1.113281 C 22.226562 0.5625 28.335938 1.144531 28.515625 3.257812 Z M 28.515625 3.257812 " fill-opacity="1" fill-rule="nonzero"/></g></g></g></g><path fill="#940229" d="M 212.726562 194.597656 C 206.152344 201.386719 196.847656 205.824219 187.265625 205.433594 C 177.796875 205.042969 163.164062 199.46875 159.015625 193.945312 C 161.816406 195.378906 164.535156 196.542969 167.171875 197.464844 L 167.21875 197.480469 C 167.515625 197.585938 167.804688 197.683594 168.097656 197.777344 C 168.101562 197.78125 168.105469 197.78125 168.109375 197.785156 C 206.09375 210.324219 225.46875 171.835938 208.898438 158.300781 C 208.894531 158.296875 208.886719 158.292969 208.882812 158.289062 C 203.289062 153.105469 193.394531 151.109375 179.007812 156.089844 C 182.363281 154.566406 185.449219 153.214844 188.382812 152.140625 C 192.332031 150.699219 196.003906 149.765625 199.6875 149.601562 C 201.6875 149.511719 203.691406 149.648438 205.746094 150.054688 C 214.824219 152.023438 219.660156 158.722656 221.152344 166.957031 C 222.960938 176.96875 219.804688 187.292969 212.726562 194.601562 Z M 212.726562 194.597656 " fill-opacity="1" fill-rule="nonzero"/><g mask="url(#c6ad88c4f3)"><g transform="matrix(1, 0, 0, 1, 121, 183)"><g clip-path="url(#b293a3ce09)"><g clip-path="url(#a11dfa3df7)"><path fill="#d6053d" d="M 52.382812 19.234375 C 44.304688 18.144531 36.910156 14.441406 29.953125 10.289062 C 20.6875 4.757812 7.640625 -4.121094 1.0625 7.558594 C 5.847656 -4.171875 19.117188 1.445312 28.367188 7.570312 C 35.820312 12.5 43.664062 16.949219 52.382812 19.234375 Z M 52.382812 19.234375 " fill-opacity="1" fill-rule="nonzero"/></g></g></g></g><g fill="#737373" fill-opacity="1"><g transform="translate(62.378907, 275.534236)"><g><path d="M 7.199219 0 L 16.289062 0 C 23.890625 0 27.714844 -4.140625 27.714844 -9.359375 C 27.714844 -13.003906 25.78125 -15.703125 21.550781 -16.105469 L 21.550781 -16.289062 C 24.699219 -17.320312 26.859375 -20.113281 26.859375 -24.117188 C 26.859375 -28.613281 23.9375 -31.179688 15.386719 -31.179688 L 7.289062 -31.179688 C 4.8125 -31.179688 3.464844 -29.785156 3.464844 -27.21875 C 3.464844 -15.074219 3.417969 -7.917969 3.375 -3.824219 C 3.375 -1.351562 4.722656 0 7.199219 0 Z M 11.382812 -18.625 C 11.382812 -21.867188 11.382812 -23.890625 11.429688 -25.78125 L 13.992188 -25.78125 C 17.230469 -25.78125 18.898438 -24.878906 18.898438 -22.722656 C 18.898438 -20.515625 17.410156 -18.625 12.777344 -18.625 Z M 11.429688 -5.355469 C 11.382812 -7.242188 11.382812 -9.132812 11.382812 -11.023438 L 11.382812 -14.441406 L 14.667969 -14.441406 C 18.222656 -14.441406 19.933594 -12.6875 19.933594 -10.078125 C 19.933594 -7.0625 17.773438 -5.355469 13.992188 -5.355469 Z M 11.429688 -5.355469 "/></g></g></g><g fill="#737373" fill-opacity="1"><g transform="translate(92.116194, 275.534236)"><g><path d="M 14.351562 -31.628906 C 7.695312 -31.628906 3.78125 -26.5 2.746094 -10.574219 C 2.609375 -8.503906 2.566406 -6.300781 2.519531 -3.871094 C 2.472656 -1.351562 3.824219 0 6.253906 0 C 8.683594 0 10.035156 -1.351562 10.035156 -3.824219 C 10.035156 -4.949219 10.078125 -5.984375 10.078125 -6.972656 L 18.042969 -6.972656 C 18.085938 -5.847656 18.085938 -4.722656 18.085938 -3.507812 C 18.085938 -1.214844 19.4375 0 21.910156 0 L 22.585938 0 C 25.0625 0 26.410156 -1.441406 26.367188 -4.050781 C 26.050781 -25.105469 22.179688 -31.628906 14.351562 -31.628906 Z M 10.167969 -12.328125 C 10.484375 -22.40625 11.429688 -25.285156 13.722656 -25.285156 C 15.972656 -25.285156 17.320312 -22.40625 17.863281 -12.328125 Z M 10.167969 -12.328125 "/></g></g></g><g fill="#737373" fill-opacity="1"><g transform="translate(120.9987, 275.534236)"><g><path d="M 25.242188 -28.164062 C 25.242188 -30.144531 23.890625 -31.179688 21.417969 -31.179688 L 4.949219 -31.179688 C 2.472656 -31.179688 1.125 -30.101562 1.125 -28.164062 C 1.125 -26.230469 2.472656 -25.105469 4.996094 -25.105469 C 6.34375 -25.152344 7.648438 -25.152344 8.910156 -25.152344 C 8.910156 -22 8.953125 -18.808594 8.953125 -15.613281 C 8.953125 -11.652344 8.910156 -7.738281 8.863281 -3.824219 C 8.863281 -1.351562 10.214844 0 12.6875 0 L 13.496094 0 C 15.972656 0 17.320312 -1.351562 17.277344 -3.824219 C 17.277344 -7.785156 17.277344 -11.652344 17.277344 -15.613281 L 17.277344 -25.152344 C 18.625 -25.152344 19.933594 -25.152344 21.371094 -25.105469 C 23.890625 -25.105469 25.242188 -26.230469 25.242188 -28.164062 Z M 25.242188 -28.164062 "/></g></g></g><g fill="#737373" fill-opacity="1"><g transform="translate(147.361857, 275.534236)"><g><path d="M 7.199219 0 L 8.007812 0 C 10.484375 0 11.832031 -1.351562 11.832031 -3.824219 L 11.832031 -27.355469 C 11.832031 -29.828125 10.484375 -31.179688 8.007812 -31.179688 L 7.199219 -31.179688 C 4.722656 -31.179688 3.375 -29.828125 3.375 -27.355469 L 3.375 -3.824219 C 3.375 -1.351562 4.722656 0 7.199219 0 Z M 7.199219 0 "/></g></g></g><g fill="#737373" fill-opacity="1"><g transform="translate(162.567919, 275.534236)"><g><path d="M 7.199219 0 L 8.007812 0 C 10.484375 0 11.832031 -1.351562 11.832031 -3.824219 C 11.789062 -6.300781 11.789062 -8.773438 11.789062 -11.25 L 13.453125 -11.25 C 17.097656 -11.25 18.3125 -7.917969 18.941406 -3.644531 C 19.300781 -1.214844 20.605469 0 22.992188 0 L 24.429688 0 C 27.085938 0 28.480469 -1.621094 27.894531 -4.320312 C 26.636719 -9.898438 24.789062 -12.6875 21.820312 -13.585938 L 21.820312 -13.769531 C 25.644531 -14.710938 27.984375 -17.773438 27.984375 -21.820312 C 27.984375 -28.390625 24.070312 -31.179688 14.9375 -31.179688 L 7.199219 -31.179688 C 4.722656 -31.179688 3.375 -29.828125 3.375 -27.355469 C 3.417969 -23.441406 3.464844 -19.527344 3.464844 -15.613281 C 3.464844 -11.652344 3.417969 -7.738281 3.375 -3.824219 C 3.375 -1.351562 4.722656 0 7.199219 0 Z M 11.789062 -16.199219 C 11.789062 -20.425781 11.789062 -22.722656 11.832031 -24.972656 L 13.992188 -24.972656 C 17.726562 -24.972656 19.300781 -23.800781 19.300781 -21.011719 C 19.300781 -17.59375 17.546875 -16.199219 13.316406 -16.199219 Z M 11.789062 -16.199219 "/></g></g></g><g fill="#737373" fill-opacity="1"><g transform="translate(193.249961, 275.534236)"><g><path d="M 11.789062 -5.984375 L 11.789062 -12.417969 C 13.675781 -12.371094 15.566406 -12.371094 17.367188 -12.328125 C 19.839844 -12.328125 21.191406 -13.40625 21.191406 -15.386719 C 21.191406 -17.320312 19.839844 -18.402344 17.367188 -18.402344 C 15.566406 -18.355469 13.675781 -18.355469 11.789062 -18.3125 L 11.789062 -25.195312 C 14.261719 -25.152344 16.78125 -25.152344 19.167969 -25.105469 C 21.640625 -25.105469 22.992188 -26.1875 22.992188 -28.164062 C 22.992188 -30.101562 21.640625 -31.179688 19.167969 -31.179688 L 7.199219 -31.179688 C 4.722656 -31.179688 3.375 -29.828125 3.417969 -27.355469 C 3.417969 -23.441406 3.464844 -19.527344 3.464844 -15.613281 C 3.464844 -11.699219 3.417969 -7.785156 3.417969 -3.824219 C 3.375 -1.351562 4.722656 0 7.199219 0 L 19.617188 0 C 22.089844 0 23.441406 -1.078125 23.441406 -3.058594 C 23.441406 -4.996094 22.089844 -6.074219 19.617188 -6.074219 C 17.097656 -6.027344 14.441406 -6.027344 11.789062 -5.984375 Z M 11.789062 -5.984375 "/></g></g></g><g fill="#737373" fill-opacity="1"><g transform="translate(218.668363, 275.534236)"><g><path d="M 31.71875 -31.179688 L 27.128906 -31.179688 C 24.878906 -31.179688 23.484375 -30.144531 22.8125 -28.03125 L 19.570312 -17.953125 L 15.703125 -28.164062 C 14.9375 -30.234375 13.542969 -31.179688 11.339844 -31.179688 L 7.199219 -31.179688 C 4.722656 -31.179688 3.375 -29.828125 3.417969 -27.355469 C 3.464844 -19.480469 3.464844 -11.699219 3.417969 -3.824219 C 3.375 -1.351562 4.722656 0 7.109375 0 C 9.492188 0 10.796875 -1.351562 10.707031 -3.871094 C 10.527344 -8.546875 10.4375 -13.363281 10.347656 -21.550781 L 10.574219 -21.550781 L 15.296875 -6.75 C 15.972656 -4.632812 17.007812 -3.597656 18.535156 -3.597656 C 20.023438 -3.597656 21.101562 -4.632812 21.820312 -6.703125 L 26.949219 -21.550781 L 27.128906 -21.550781 L 27.175781 -15.613281 C 27.175781 -11.652344 27.128906 -7.738281 27.085938 -3.824219 C 27.085938 -1.351562 28.433594 0 30.910156 0 L 31.71875 0 C 34.195312 0 35.542969 -1.351562 35.542969 -3.824219 C 35.542969 -7.738281 35.5 -11.652344 35.5 -15.613281 C 35.5 -19.527344 35.542969 -23.441406 35.542969 -27.355469 C 35.542969 -29.828125 34.195312 -31.179688 31.71875 -31.179688 Z M 31.71875 -31.179688 "/></g></g></g><g fill="#737373" fill-opacity="1"><g transform="translate(257.583285, 275.534236)"><g/></g></g><g fill="#737373" fill-opacity="1"><g transform="translate(268.830355, 275.534236)"><g><path d="M 15.164062 0.449219 C 21.597656 0.449219 25.644531 -2.070312 26.546875 -7.558594 C 26.996094 -10.167969 25.332031 -11.609375 22.855469 -11.609375 L 22.8125 -11.609375 C 20.472656 -11.609375 19.527344 -10.347656 18.761719 -7.964844 C 18.222656 -6.34375 17.140625 -5.757812 15.207031 -5.757812 C 12.644531 -5.757812 10.84375 -7.648438 10.84375 -15.613281 C 10.84375 -22.945312 12.101562 -25.554688 15.207031 -25.554688 C 17.503906 -25.554688 18.582031 -24.65625 18.941406 -22.316406 C 19.300781 -19.75 20.246094 -18.355469 22.722656 -18.355469 L 22.992188 -18.355469 C 25.421875 -18.355469 27.085938 -19.660156 26.859375 -22.179688 C 26.320312 -28.300781 22.136719 -31.628906 15.476562 -31.628906 C 6.613281 -31.628906 2.203125 -26.277344 2.203125 -15.613281 C 2.203125 -4.902344 6.207031 0.449219 15.164062 0.449219 Z M 15.164062 0.449219 "/></g></g></g><g fill="#737373" fill-opacity="1"><g transform="translate(297.397942, 275.534236)"><g><path d="M 7.199219 0 L 8.007812 0 C 10.484375 0 11.832031 -1.351562 11.832031 -3.824219 L 11.832031 -27.355469 C 11.832031 -29.828125 10.484375 -31.179688 8.007812 -31.179688 L 7.199219 -31.179688 C 4.722656 -31.179688 3.375 -29.828125 3.375 -27.355469 L 3.375 -3.824219 C 3.375 -1.351562 4.722656 0 7.199219 0 Z M 7.199219 0 "/></g></g></g></svg>